<svg xmlns="http://www.w3.org/2000/svg" id="Capa_2" viewBox="0 0 1128.3 310.72"><defs><style> .cls-1 { fill: #fff; } </style></defs><g id="Capa_1-2"><g><path class="cls-1" d="M555.9,50.48c-2.18,0-3.94,1.67-3.94,3.74s1.77,3.74,3.94,3.74,3.94-1.67,3.94-3.74-1.77-3.74-3.94-3.74"></path><path class="cls-1" d="M436.86,172.74c-6.21-.94-6.08-8.35-6.04-9.19l5.39.14c-.06,1.92.63,4.4,1.6,4.53,1.91.3,5.14-.79,6.01-2.44.83-1.49-.91-3.12-2.5-4.21-2.94-2.04-6.05-2.42-9.27-1.13-4.59,1.85-6.2,6.86-5.05,10.44.66,2.12,2.8,5.52,9.6,5.02,3.64-.29,6.67-.97,9.17-2.03.32-1.39.76-2.8,1.35-4.17-2.65,2.42-6.97,3.55-10.26,3.04"></path><path class="cls-1" d="M449.41,165.69c.5-.69,1.05-1.39,1.66-2.09-.65,0-1.23-.04-1.82-.1.21.8.23,1.55.17,2.19"></path><path class="cls-1" d="M318.15,208.23c-3.02-2.87-17.77-5.36-17.49,5.09.28,10.45,19.56,6.67,19.56,6.67,3.5-4.52.95-8.9-2.07-11.76"></path><path class="cls-1" d="M691.45,172.74c-3.29.51-7.61-.62-10.26-3.04.59,1.37,1.03,2.78,1.35,4.17,2.49,1.07,5.53,1.74,9.16,2.03,6.81.5,8.95-2.9,9.6-5.02,1.15-3.58-.47-8.58-5.05-10.44-3.23-1.29-6.33-.91-9.27,1.13-1.59,1.09-3.33,2.72-2.5,4.21.87,1.64,4.1,2.74,6.01,2.44.97-.14,1.66-2.61,1.6-4.53l5.4-.14c.04.84.17,8.24-6.04,9.19"></path><path class="cls-1" d="M678.9,165.69c-.06-.64-.05-1.39.17-2.19-.6.06-1.17.1-1.82.1.61.7,1.16,1.4,1.66,2.09"></path><path class="cls-1" d="M569.44,55.24c2.18,0,3.94-1.67,3.94-3.74s-1.77-3.74-3.94-3.74-3.94,1.67-3.94,3.74,1.77,3.74,3.94,3.74"></path><path class="cls-1" d="M827.65,213.32c.28-10.45-14.47-7.96-17.49-5.09-3.02,2.86-5.57,7.24-2.07,11.76,0,0,19.29,3.78,19.56-6.67"></path><path class="cls-1" d="M569.44,62.47c0-2.06-1.77-3.74-3.94-3.74s-3.94,1.67-3.94,3.74,1.76,3.74,3.94,3.74,3.94-1.67,3.94-3.74"></path><path class="cls-1" d="M967.77,210.09c-.09-10.85-6.73-20.14-18.35-25.28-9.41-4.17-19.45-4.36-27.49-.56-7.7,3.57-12.7,10.22-13.37,17.73-.44,4.59.84,9.11,3.61,13.16-3.32-2.1-6.71-4.99-10.15-8.65-7.31-7.74-11.57-14.37-14.98-19.69-7.63-11.96-14.23-22.28-38.49-28.15-.42-.1-.85-.18-1.28-.24-7.96-3.16-17.42-4.88-28.23-5.13-32.57-.68-51.53,13.38-66.18,26.85.07-.74.13-1.49.18-2.24,1.18-19.05-7.73-36.59-23.82-46.93-9.81-6.31-23.01-9.64-35.81-8,7.97-10.23,12.11-22.98,10-31.53-3.56-14.6-13.44-26.86-18.52-32.42-8.62-15.48-19.72-13.35-22.99-12.29-2.79.9-5.13,2.48-6.93,4.57-.95-.33-1.94-.64-2.99-.93-7.38-2.05-17.6.42-21.94,8.12-1.16,2.06-3.77,8.12.53,15.19-.15,1.39-.09,2.83.2,4.27.34,1.75,1.12,4.01,2.82,6.34-6.49-1.42-13.24-1.46-19.8-.45.91-2.16,1.52-4.67,1.57-7.74l.03-1.31c.04-1.44.09-3.1-.15-4.87,1.12-.82,2.04-1.71,2.88-2.6.12-.13.24-.27.45-.46,5.85-5.19,8.38-11.99,7.2-18.9,4.76-3,6.63-8.89,4.16-13.98-1.91-3.94-6.22-6.38-10.79-6.47-.67-.01-1.22-.04-1.66-.07-.29-.4-.62-.82-.99-1.24-3.11-3.59-6.49-6.97-13.35-8.9l-1.37-.41c-2.03-.61-4.21-1.27-6.59-1.53-.76-1.67-1.69-2.86-2.29-3.65-.1-.13-.22-.27-.34-.45-4.73-7.45-12.83-11.53-22.25-11.25-2.51.07-4.46.48-5.88.77-.09.02-.18.04-.26.05-.08-.02-.17-.03-.26-.05-1.42-.3-3.37-.7-5.84-.77-9.43-.29-17.56,3.8-22.29,11.26-.11.17-.23.31-.33.44-.61.79-1.53,1.98-2.3,3.65-2.38.26-4.56.92-6.59,1.53l-1.21.37c-7.02,1.97-10.39,5.35-13.4,8.82-.42.47-.78.93-1.09,1.36-.44.03-.99.06-1.67.07-4.57.09-8.88,2.53-10.79,6.47-2.46,5.09-.6,10.97,4.16,13.97-1.19,6.89,1.35,13.72,7.25,18.95.17.15.29.3.41.43.84.89,1.76,1.77,2.88,2.59-.24,1.77-.19,3.43-.15,4.87l.03,1.33c.05,3.06.65,5.56,1.57,7.72-6.56-1.01-13.3-.97-19.79.45,1.7-2.33,2.48-4.58,2.82-6.33.28-1.44.34-2.88.19-4.27,4.3-7.07,1.68-13.13.52-15.19-4.34-7.7-14.56-10.18-21.89-8.14-1.07.29-2.07.61-3.03.95-1.81-2.09-4.14-3.66-6.93-4.57-3.27-1.06-14.36-3.2-22.99,12.29-5.08,5.56-14.95,17.82-18.51,32.39-2.12,8.58,2.03,21.34,9.99,31.56-12.8-1.65-25.99,1.68-35.8,7.99-16.09,10.34-25,27.88-23.82,46.92.04.76.11,1.51.18,2.26-14.64-13.46-33.6-27.54-66.22-26.86-10.78.25-20.24,1.97-28.2,5.13-.43.06-.85.14-1.28.24-24.27,5.87-30.86,16.19-38.48,28.13-3.42,5.33-7.67,11.97-15.01,19.73-3.44,3.66-6.82,6.53-10.13,8.64,2.77-4.05,4.05-8.55,3.62-13.11-.68-7.57-5.68-14.22-13.3-17.75-8.11-3.84-18.16-3.65-27.57.52-11.63,5.15-7.53,26-18.35,25.3C93.32,205.73,11.18,243.98,0,310.72l1128.3-.02c-14.66-66.72-89.1-97.5-160.53-100.61h0ZM955.91,212.32c-1.04,8.98-9.2,18.34-17.72,20.45l-.45.16c-16.18,5.77-33.47.07-48.72-16.13-8.3-8.79-13-16.13-16.79-22.05-4.78-7.39-8.04-12.53-15.35-16.39,6.2,7.09,8.43,15.79,8.84,23.77.55,10.95-5.89,20.68-17.64,26.58-3.8,1.92-7.89,3.28-12.01,4.13-.48-.01-1.08.08-1.8.3-.83.14-1.66.3-2.48.4.19.04.36.1.54.14-12.81,3.44-19.16-2.2-19.16-2.2-.49-.22-.99-.36-1.44-.6-3.35-1.7-5.95-3.59-7.91-5.7-2.21-.54-4.45-1.11-6.69-1.73-8.05-2.29-11.75-4.32-19.7-3.25-10.01,1.29-20.42,11.9-21.19,12.74-8.64,9.72-3.05,15.83-5.58,25.07l-4.44,3.78c-1.08-2.09-14.7-13.17-2.12-32.36,4.98-7.6,14.36-12.35,27.9-14.1,9.24-1.2,18.18,1.34,26.85,3.79.53.13,1.06.25,1.61.43-.05-.25-.2-.43-.27-.66-.28-1.08-.41-2.13-.41-3.14,0-4.87,2.77-8.88,4.13-10.56,3.25-3.97,13.33-7.11,23.12-2.33,5.76,2.8,8.58,7.75,7.35,12.94-1.43,5.89-7.59,10.4-15.36,11.18-1.51.15-3.08,0-4.61-.06.05.02.07.04.11.06,7.63,3.89,20.59,2.99,30.82-2.2,5.86-2.94,15.64-9.8,15-22.45-1.11-21.53-15.13-32.72-41.7-33.27-29.76-.6-44.85,13.8-59.45,27.73-4.77,4.55-9.29,8.87-14.25,12.58-9.85,7.45-45.36,31-88.86,22.04l.14-.45c-26.65-1.59-51.4-14.79-71.77-39.08-11.79-14.07-16.63-26.92-17.38-38.21h-5.82c-.75,11.28-5.59,24.14-17.38,38.21-20.37,24.29-45.12,37.49-71.77,39.08l.14.45c-43.5,8.97-79.02-14.59-88.86-22.04-4.96-3.71-9.48-8.03-14.25-12.58-14.6-13.93-29.68-28.33-59.45-27.73-26.57.55-40.59,11.74-41.7,33.27-.64,12.64,9.14,19.51,15,22.45,10.23,5.18,23.18,6.09,30.82,2.2.04-.02.06-.04.11-.06-1.53.06-3.11.2-4.61.06-7.78-.78-13.94-5.29-15.36-11.18-1.23-5.18,1.59-10.13,7.35-12.94,9.79-4.78,19.86-1.63,23.12,2.33,1.36,1.68,4.13,5.68,4.13,10.56,0,1.01-.13,2.06-.41,3.14-.07.23-.22.42-.27.66.55-.17,1.09-.3,1.61-.43,8.67-2.45,17.61-4.99,26.85-3.79,13.54,1.75,22.92,6.51,27.9,14.1,12.58,19.19-1.04,30.27-2.12,32.36l-4.44-3.78c-2.53-9.24,3.06-15.34-5.58-25.07-.76-.84-11.18-11.45-21.19-12.74-7.95-1.06-11.64.97-19.7,3.25-2.24.62-4.48,1.19-6.69,1.73-1.96,2.11-4.56,4-7.91,5.7-.45.24-.94.38-1.44.6,0,0-6.35,5.64-19.16,2.2.18-.04.36-.1.54-.14-.83-.1-1.66-.26-2.48-.4-.72-.22-1.32-.31-1.8-.3-4.12-.85-8.21-2.21-12.01-4.13-11.75-5.91-18.19-15.63-17.64-26.58.41-7.98,2.63-16.68,8.84-23.77-7.31,3.86-10.57,9-15.35,16.39-3.79,5.92-8.49,13.26-16.79,22.05-15.26,16.2-32.55,21.9-48.72,16.13l-.45-.16c-8.52-2.11-16.68-11.47-17.72-20.45-.89-7.55,3.19-13.74,11.47-17.4,6.14-2.72,12.46-2.96,17.35-.64,3.95,1.83,6.5,5.09,6.82,8.71.52,5.49-4.87,9.58-6.8,10.87-.41.28-.91.4-1.41.34l-1.44-.15c-1.91-.2-2.51-2.56-.9-3.56,1.53-.88,5.46-3.94,5.17-7.14-.22-2.09-1.71-3.98-4.06-5.09-3.31-1.53-7.67-1.29-12.22.73-7.95,3.52-9.05,8.95-8.59,12.91.9,7.67,8.1,15.04,13.9,16.49l.98.32c17.59,6.3,32.77-4.55,42.38-14.77,8-8.46,12.61-15.63,16.28-21.36,7.08-11.08,11.75-18.38,31.34-23.12l.15.45c6.65-3.19,15.34-5.21,26.71-5.47,32.28-.65,48.96,15.26,63.64,29.27,4.67,4.46,9.08,8.68,13.79,12.23,7.2,5.4,28.77,19.85,56.9,22.45-9.24-2.18-18.58-5.64-27.94-10.44-17.34-8.95-27.88-23.75-28.9-40.7-.93-15.08,6.06-28.94,18.68-37.04,13.23-8.52,34.43-10.07,47.57,3.79.33.3,1.49,2.3,2.7,5.14,3.97-1.05,10.42-1.67,23.16-3.02,3.48-.37,7.28-.28,11.15.22-11.29-7.57-22.58-9.79-36.52-20.27-4.06-3.09-6.12-5.91-7.27-7.18-8.1-8.89-11.37-19.94-10.14-24.93,3.4-13.92,14.26-25.87,16.87-28.62,7.16-14.01,14.62-8.05,12.22,2.79,5.99-3.64,9.26-5.7,14.19-7.06,4.99-1.39,14.2,3.03,4.35,10.82,4.3,2.64,2.55,9.26-11.66,12.09,3.63.68,9.88,8.42-5.74,8.94-10.52,1.09-13.99,2.46-16.43,7.9-1.92,4.29-.55,9.41,2.76,14.77.94,1.5,2.32,5.9,6.78,9.03,8.71,6.16,23.36,11.86,37.97,20.27,9.5,5.48,20.97,13.38,23.64,23.26,2.98,11.14,1.96,26.97-4.44,36.6-6.51,9.79-23.23,19.47-38.8,12.5-5.62-2.51-7.44-8.37-4.13-13.03,3.07-4.27,9.23-4.74,14.81-2.23-1.06,1.36-.96,1.31-1.3,2.13-3.59-1.59-7.99-.82-9.81,1.73-1.81,2.55-.39,5.95,3.18,7.54,13.48,6.01,26.74-2.86,31.94-10.98,5.38-7.52,7.33-23.48,3.74-33.13-4.15-9.89-9.07-12-22.1-12.3-11.43,2.12-12.11,6.46-12,14.84.13,8.4-6.58,3.06-7.83,2.53-8.24,9.86-16.45,5.77-16.43,2.71-7.01,8.89-10.6,5.94-12.23,2.18-2.59.82-5.52,1.37-8.84,1.64-9.12.7-13.89-3.87-15.3-8.35-1.79-5.5.72-12.93,7.96-15.82,4-1.61,8.12-1.56,11.9.03,1.06-2.48,4.25-4.94,9.16-6.24-.8-1.95-1.59-3.38-1.91-3.87-10.86-11.38-28.73-9.97-39.98-2.78-11.16,7.18-17.33,19.56-16.53,33.12.96,15.4,10.54,28.91,26.3,37.03,44.38,22.81,88.38,13.78,120.74-24.85,10.98-13.08,15.55-25.05,16.28-35.52h-3.84c-1.29,0-1.94-.55-1.94-1.11,0-.81,1.99-1.11,2.77-1.94v-3.61c-.78-.82-2.77-1.14-2.77-1.94,0-.55.65-1.08,1.94-1.08h3.45c-3.53-23.43-24.99-37.44-25.33-37.67-9.01-5.73-29.7-13.17-43.52-.27-8.07,7.49-7.4,14.9-6.27,18.63,1.45,4.81,4.93,8.08,7.61,8.88,5.64,1.67,12.1.65,15.35-2.34,2.3-2.13,2.62-5,.87-8.32-1.46-2.79-3.19-4.38-5.14-4.76-2.77-.55-5.48,1.39-5.53,1.42l-3.53-3.47c.19-.14,4.78-3.46,10.2-2.43,3.74.7,6.76,3.2,8.95,7.39,2.59,4.96,1.91,9.81-1.85,13.29-4.72,4.36-13.39,5.83-21.06,3.56-4.88-1.41-9.37-6.25-11.11-12.07-1.39-4.64-2.28-13.76,7.5-22.86,14.28-13.33,36.36-9.48,50.79-.31.36.24,24.04,15.69,27.63,41.34h1.54v-54.87c-.32.79-.68,1.52-1.15,2.14-1.72,2.22-3.08,2.05-5.43,3.02-5.59,2.27-10.16,1.13-13.58-1.14-2.36-1.56-3.12-3.19-5.81-4.92-2.66-1.73-6.2-1.97-8.19-4.33-2.41-2.86-3.52-4.52-3.58-7.93-.05-3.48-.34-5.34,1-6.83,1.83-2.07,6.02-3.57,9.94-4.82-.91-.27-2.42-.43-4.91-.43,1.65-1.05,2.62-1.89,3.19-2.58-3.93.83-8.14,1.58-11.08.89-3.05-.71-3.26-1.85-5.08-3.45-4.27-3.79-4.4-7.84-2.92-11.32,1.02-2.36,2.65-3.47-5.8-8.72,10.65-.15,9.81-3.09,11.86-5.38,2.46-2.84,3.97-4.27,7.76-5.34,3.9-1.15,5.9-1.94,7.98-1.33,3.12.93,6.33,4.25,9.11,7.2.71-.23,1.42-.49,2.21-.97.36-.23.68-.47,1-.71-2.44-3.23-5.25-7.01-5.42-9.98-.15-2.65,1.06-3.2,2.29-5.14,2.94-4.63,7.48-5.99,11.82-5.86,2.47.07,4.09.74,6.49.99,2.4-.25,4.03-.92,6.49-.99,4.34-.14,8.89,1.23,11.82,5.86,1.23,1.94,2.44,2.5,2.29,5.14-.17,2.96-2.98,6.75-5.42,9.98.33.24.64.48,1.01.71.79.48,1.5.74,2.21.97,2.78-2.95,5.99-6.27,9.11-7.2,2.08-.61,4.07.18,7.98,1.33,3.79,1.06,5.3,2.5,7.76,5.34,2.05,2.3,1.21,5.24,11.86,5.38-8.45,5.26-6.82,6.36-5.8,8.72,1.48,3.48,1.35,7.53-2.92,11.32-1.82,1.59-2.03,2.74-5.08,3.45-2.95.69-7.16-.06-11.08-.89.57.69,1.54,1.53,3.19,2.58-2.5,0-4,.16-4.91.43,3.93,1.26,8.12,2.76,9.94,4.82,1.34,1.49,1.05,3.35,1,6.83-.06,3.41-1.17,5.07-3.58,7.93-1.99,2.36-5.53,2.61-8.19,4.33-2.69,1.72-3.44,3.35-5.81,4.92-3.42,2.27-7.98,3.41-13.58,1.14-2.35-.97-3.71-.81-5.43-3.02-.47-.61-.83-1.35-1.15-2.14v54.87h1.54c3.59-25.65,27.27-41.1,27.63-41.34,14.43-9.17,36.5-13.02,50.79.31,9.78,9.1,8.89,18.23,7.5,22.86-1.74,5.82-6.23,10.66-11.11,12.07-7.67,2.28-16.34.81-21.06-3.56-3.76-3.48-4.45-8.33-1.85-13.29,2.19-4.19,5.21-6.69,8.95-7.39,5.42-1.03,10.01,2.29,10.2,2.43l-3.53,3.47s-2.76-1.96-5.53-1.42c-1.95.38-3.68,1.98-5.14,4.76-1.74,3.32-1.43,6.19.87,8.32,3.25,2.99,9.71,4.01,15.35,2.34,2.67-.79,6.16-4.07,7.61-8.88,1.13-3.73,1.8-11.13-6.27-18.63-13.82-12.9-34.51-5.46-43.52.27-.34.23-21.8,14.24-25.33,37.67h3.45c1.29,0,1.94.53,1.94,1.08,0,.8-1.99,1.12-2.77,1.94v3.61c.78.82,2.77,1.13,2.77,1.94,0,.55-.65,1.11-1.94,1.11h-3.84c.73,10.48,5.3,22.45,16.28,35.52,32.36,38.63,76.36,47.66,120.74,24.85,15.76-8.12,25.35-21.63,26.3-37.03.81-13.56-5.36-25.94-16.53-33.12-11.25-7.19-29.12-8.6-39.97,2.78-.32.49-1.11,1.92-1.91,3.87,4.91,1.3,8.09,3.76,9.16,6.24,3.78-1.59,7.9-1.64,11.9-.03,7.24,2.89,9.75,10.32,7.96,15.82-1.41,4.48-6.18,9.05-15.3,8.35-3.32-.27-6.25-.82-8.84-1.64-1.64,3.77-5.22,6.72-12.23-2.18.02,3.06-8.18,7.15-16.43-2.71-1.25.52-7.95,5.87-7.83-2.53.1-8.39-.57-12.72-12-14.84-13.03.3-17.95,2.41-22.1,12.3-3.59,9.65-1.64,25.61,3.74,33.13,5.21,8.12,18.46,16.98,31.94,10.98,3.57-1.59,4.99-4.99,3.18-7.54-1.83-2.55-6.23-3.32-9.81-1.73-.34-.82-.23-.77-1.3-2.13,5.59-2.5,11.74-2.03,14.81,2.23,3.3,4.66,1.48,10.52-4.13,13.03-15.57,6.97-32.29-2.71-38.8-12.5-6.39-9.64-7.41-25.47-4.43-36.6,2.67-9.88,14.14-17.78,23.64-23.26,14.62-8.4,29.27-14.11,37.97-20.27,4.46-3.13,5.84-7.53,6.78-9.03,3.31-5.36,4.69-10.48,2.76-14.77-2.44-5.44-5.91-6.81-16.43-7.9-15.61-.52-9.37-8.27-5.74-8.94-14.21-2.83-15.95-9.45-11.66-12.09-9.85-7.8-.64-12.21,4.35-10.82,4.93,1.35,8.2,3.42,14.19,7.06-2.4-10.84,5.05-16.81,12.22-2.79,2.61,2.75,13.47,14.7,16.87,28.62,1.23,4.99-2.04,16.04-10.14,24.93-1.15,1.27-3.21,4.09-7.27,7.18-13.94,10.48-25.22,12.7-36.52,20.27,3.87-.5,7.67-.59,11.15-.22,12.74,1.36,19.19,1.98,23.16,3.02,1.21-2.84,2.37-4.83,2.7-5.14,13.14-13.86,34.34-12.3,47.57-3.79,12.62,8.1,19.61,21.96,18.68,37.04-1.02,16.95-11.56,31.75-28.9,40.7-9.36,4.8-18.7,8.26-27.94,10.44,28.13-2.6,49.7-17.05,56.9-22.45,4.71-3.56,9.12-7.77,13.79-12.23,14.68-14.01,31.36-29.92,63.64-29.27,11.37.26,20.06,2.29,26.71,5.47l.15-.45c19.59,4.74,24.26,12.03,31.34,23.12,3.67,5.73,8.28,12.89,16.28,21.36,9.61,10.22,24.78,21.08,42.38,14.77l.98-.32c5.8-1.45,13-8.83,13.9-16.49.46-3.96-.64-9.39-8.59-12.91-4.55-2.02-8.9-2.26-12.22-.73-2.35,1.11-3.83,3.01-4.06,5.09-.29,3.2,3.64,6.26,5.17,7.14,1.61,1,1.01,3.36-.9,3.56l-1.44.15c-.5.05-1-.07-1.41-.34-1.93-1.29-7.32-5.38-6.8-10.87.32-3.62,2.87-6.88,6.82-8.71,4.89-2.31,11.2-2.08,17.35.64,8.28,3.67,12.36,9.85,11.47,17.4"></path><path class="cls-1" d="M646.44,151.18c21.09,2.79,22.8,21.91,22.8,21.91-4.23-17.18-22.8-21.91-22.8-21.91"></path><path class="cls-1" d="M654.45,170.22c.75-13.46-11.78-17.75-11.78-17.75,14.95,3.29,11.78,17.75,11.78,17.75"></path><path class="cls-1" d="M482.12,150.63c-21.09,2.8-22.8,21.91-22.8,21.91,4.23-17.18,22.8-21.91,22.8-21.91"></path><path class="cls-1" d="M474.11,169.68c-.76-13.46,11.78-17.75,11.78-17.75-14.95,3.29-11.78,17.75-11.78,17.75"></path></g></g></svg>